<?xml version="1.0" encoding="UTF-8"?>
<!DOCTYPE svg PUBLIC "-//W3C//DTD SVG 1.1//EN" "http://www.w3.org/Graphics/SVG/1.1/DTD/svg11.dtd">
<svg version="1.1" xmlns="http://www.w3.org/2000/svg" xmlns:xlink="http://www.w3.org/1999/xlink" x="0" y="0" width="626.708" height="764.698" viewBox="0, 0, 626.708, 764.698">
  <g id="Layer_1">
    <path d="M278.894,739.449 C277.508,744.332 274.572,747.437 267.375,751.007 C252.985,758.154 243.595,750.474 228.426,753.602 C221.079,755.117 216.631,758.199 203.366,759.804 C193.358,761.012 183.027,759.482 174.716,759.564 C165.769,760.839 157.276,761.102 151.524,758.702 C145.788,756.309 142.426,752.087 150.269,745.082 C156.386,740.852 159.682,738.879 164.552,736.119 C167.887,734.244 175.195,730.412 178.919,728.807 C190.486,723.789 195.136,726.152 205.777,718.922 C216.203,711.842 219.545,708.872 222.593,695.874 C225.777,682.307 229.44,670.877 242.315,671.612 C254.166,672.294 260.8,682.719 264.413,694.487 C268.755,708.662 284.101,721.104 278.894,739.449" fill="#F9D7C2" id="path4863"/>
    <path d="M278.894,739.449 C277.508,744.332 274.572,747.437 267.375,751.007 C252.985,758.154 243.595,750.474 228.426,753.602 C221.079,755.117 216.631,758.199 203.366,759.804 C193.358,761.012 183.027,759.482 174.716,759.564 C165.769,760.839 157.276,761.102 151.524,758.702 C145.788,756.309 142.426,752.087 150.269,745.082 C156.386,740.852 159.682,738.879 164.552,736.119 C167.887,734.244 175.195,730.412 178.919,728.807 C190.486,723.789 195.136,726.152 205.777,718.922 C216.203,711.842 219.545,708.872 222.593,695.874 C225.777,682.307 229.44,670.877 242.315,671.612 C254.166,672.294 260.8,682.719 264.413,694.487 C268.755,708.662 284.101,721.104 278.894,739.449 z M258.184,709.997 C261.082,713.709 269.451,722.657 266.707,732.504 C265.354,737.364 262.861,737.837 258.023,739.749" fill-opacity="0" stroke="#1A1919" stroke-width="2.126" stroke-linecap="round" stroke-linejoin="round" id="path4865"/>
    <path d="M164.835,741.887 C159.286,745.464 151.582,742.299 146.533,744.032 C139.882,746.319 138.232,752.874 142.364,759.107 C147.675,767.102 161.78,762.692 173.898,759.609" fill="#F9D7C2" id="path4867"/>
    <path d="M164.835,741.887 C159.286,745.464 151.582,742.299 146.533,744.032 C139.882,746.319 138.232,752.874 142.364,759.107 C147.675,767.102 161.78,762.692 173.898,759.609" fill-opacity="0" stroke="#1A1919" stroke-width="2.126" stroke-linecap="round" stroke-linejoin="round" id="path4869"/>
    <path d="M161.37,737.927 C163.135,737.154 168.198,736.637 170.313,736.652" fill="#F9D7C2" id="path4871"/>
    <path d="M161.37,737.927 C163.135,737.154 168.198,736.637 170.313,736.652" fill-opacity="0" stroke="#1A1919" stroke-width="2.126" stroke-linecap="round" stroke-linejoin="round" id="path4873"/>
    <path d="M368.326,421.621 C377.082,424.037 382.844,428.991 386.729,436.767 C390.656,444.642 393.681,455.595 394.116,464.688 C394.608,474.847 413.074,481.911 399.432,483.375 C382.477,485.19 354.46,514.115 335.224,526.94 C329.083,531.035 303.867,549.03 267.879,567.197 C274.892,590.706 272.462,613.962 273.776,631.844 C275.602,656.747 277.55,662.739 282.393,685.007 C262.228,696.459 208.387,702.189 193.534,693.392 C194.577,666.827 190.099,643.779 186.62,620.325 C185.546,613.066 181.413,587.469 178.023,573.241 C173.659,554.808 177.241,532.779 194.148,513.399 C211.683,493.295 283.122,433.661 294.711,425.941 C316.76,411.254 341.369,414.19 368.326,421.621" fill="#FFFFFE" id="path4875"/>
    <path d="M364.051,446.102 C380.84,449.234 398.468,471.123 404.358,481.535 C402.977,482.862 401.353,483.169 399.429,483.375 C382.474,485.196 354.458,514.115 335.224,526.94 C329.083,531.035 303.867,549.03 267.879,567.197 C274.892,590.706 272.462,613.962 273.776,631.845 C275.602,656.747 277.55,662.739 282.393,685.007 C262.184,696.482 258.251,685.652 260.099,667.284 C261.505,653.289 259.448,643.899 255.785,631.218 C254.032,625.148 252.74,624.444 252.54,617.469 C252.378,611.875 254.794,606.147 253.72,600.018 C249.838,577.826 234.778,568.808 253.501,551.733 C268.521,538.034 261.129,530.506 271.102,520.536 C282.543,518.953 283.732,520.653 295.045,516.011 C304.536,512.114 305.466,497.563 313.829,491.858 C323.2,485.462 333.982,488.814 340.684,476.823 C344.347,470.274 341.35,456.272 347.698,450.619 C352.718,446.147 358.337,445.036 364.051,446.102" fill="#E4E4E3" id="path4877"/>
    <path d="M368.326,421.621 C377.082,424.037 382.844,428.991 386.729,436.767 C390.656,444.642 393.681,455.595 394.116,464.688 C394.608,474.847 413.074,481.911 399.432,483.375 C382.477,485.19 354.46,514.115 335.224,526.94 C329.083,531.035 303.867,549.03 267.879,567.197 C274.892,590.706 272.462,613.962 273.776,631.844 C275.602,656.747 277.55,662.739 282.393,685.007 C262.228,696.459 208.387,702.189 193.534,693.392 C194.577,666.827 190.099,643.779 186.62,620.325 C185.546,613.066 181.413,587.469 178.023,573.241 C173.659,554.808 177.241,532.779 194.148,513.399 C211.683,493.295 283.122,433.661 294.711,425.941 C316.76,411.254 341.369,414.19 368.326,421.621 z" fill-opacity="0" stroke="#1A1919" stroke-width="2.126" stroke-linecap="round" stroke-linejoin="round" id="path4879"/>
    <path d="M624.723,715.749 C623.561,720.744 618.056,727.472 610.353,728.102 C593.426,729.489 594.303,731.537 580.016,735.069 C573.093,736.772 561.738,743.942 549.206,745.877 C539.756,747.332 526.983,746.147 519.093,746.424 C510.656,747.909 500.366,747.924 494.838,745.607 C483.821,746.447 480.498,731.994 489.033,727.667 C493.818,726.234 504.798,726.189 509.846,724.307 C514.706,722.499 528.311,712.914 531.791,711.189 C542.598,705.827 543.153,703.359 552.633,695.192 C559.451,689.312 562.661,685.899 559.713,676.337 C553.623,656.649 513.131,623.921 525.363,624.389 C532.196,624.644 555.498,596.06 567.498,608.875 C575.283,617.18 596.868,651.669 608.823,670.149 C616.998,682.787 629.081,696.939 624.723,715.749" fill="#F9D7C2" id="path4881"/>
    <path d="M624.723,715.749 C623.561,720.744 618.056,727.472 610.353,728.102 C593.426,729.489 594.303,731.537 580.016,735.069 C573.093,736.772 561.738,743.942 549.206,745.877 C539.756,747.332 526.983,746.147 519.093,746.424 C510.656,747.909 500.366,747.924 494.838,745.607 C483.821,746.447 480.498,731.994 489.033,727.667 C493.818,726.234 504.798,726.189 509.846,724.307 C514.706,722.499 528.311,712.914 531.791,711.189 C542.598,705.827 543.153,703.359 552.633,695.192 C559.451,689.312 562.661,685.899 559.713,676.337 C553.623,656.649 513.131,623.921 525.363,624.389 C532.196,624.644 555.498,596.06 567.498,608.875 C575.283,617.18 596.868,651.669 608.823,670.149 C616.998,682.787 629.081,696.939 624.723,715.749 z M598.826,689.919 C603.926,692.852 618.393,707.589 604.901,716.567" fill-opacity="0" stroke="#1A1919" stroke-width="2.126" stroke-linecap="round" stroke-linejoin="round" id="path4883"/>
    <path d="M509.231,745.719 C495.213,750.482 489.423,747.242 489.873,738.624 C490.181,732.797 494.831,731.379 499.946,730.937 C505.563,730.464 509.028,729.939 510.783,729.534" fill="#F9D7C2" id="path4885"/>
    <path d="M509.231,745.719 C495.213,750.482 489.423,747.242 489.873,738.624 C490.181,732.797 494.831,731.379 499.946,730.937 C505.563,730.464 509.028,729.939 510.783,729.534" fill-opacity="0" stroke="#1A1919" stroke-width="2.126" stroke-linecap="round" stroke-linejoin="round" id="path4887"/>
    <path d="M524.351,732.159 C519.198,735.939 515.628,734.154 510.603,734.589 C506.598,734.927 503.388,736.967 503.456,742.494 C503.576,752.342 514.901,751.292 527.703,746.139" fill="#F9D7C2" id="path4889"/>
    <path d="M524.351,732.159 C519.198,735.939 515.628,734.154 510.603,734.589 C506.598,734.927 503.388,736.967 503.456,742.494 C503.576,752.342 514.901,751.292 527.703,746.139" fill-opacity="0" stroke="#1A1919" stroke-width="2.126" stroke-linecap="round" stroke-linejoin="round" id="path4891"/>
    <path d="M53.051,237.997 C61.069,234.913 66.46,228.066 71.159,222.06 C75.306,216.753 77.012,214.927 86.545,214.276 C92.659,213.861 118.593,214.858 130.575,213.519 C135.727,212.943 125.851,212.614 126.817,206.26 C127.285,203.193 127.051,195.743 125.888,192.597 C122.481,183.391 126.801,182.214 118.721,183.313 C107.256,184.869 78.456,183.46 66.895,183.58 C55.968,183.691 48.125,180.769 37.031,179.694 C32.155,179.216 25.169,176.221 19.405,181.515 C14.888,185.651 10.677,200.215 7.978,205.562 C4.64,212.186 13.613,215.643 15.238,222.205 C13.702,225.676 13.597,226.041 12.812,228.495 C10.891,234.485 11.899,242.028 17.465,242.874 C28.286,244.51 42.898,241.902 53.051,237.997" fill="#F9D7C2" id="path4893"/>
    <path d="M53.051,237.997 C61.069,234.913 66.46,228.066 71.159,222.06 C75.306,216.753 77.012,214.927 86.545,214.276 C92.659,213.861 118.593,214.858 130.575,213.519 C135.727,212.943 125.851,212.614 126.817,206.26 C127.285,203.193 127.051,195.743 125.888,192.597 C122.481,183.391 126.801,182.214 118.721,183.313 C107.256,184.869 78.456,183.46 66.895,183.58 C55.968,183.691 48.125,180.769 37.031,179.694 C32.155,179.216 25.169,176.221 19.405,181.515 C14.888,185.651 10.677,200.215 7.978,205.562 C4.64,212.186 13.613,215.643 15.238,222.205 C13.702,225.676 13.597,226.041 12.812,228.495 C10.891,234.485 11.899,242.028 17.465,242.874 C28.286,244.51 42.898,241.902 53.051,237.997 z" fill-opacity="0" stroke="#1A1919" stroke-width="2.126" stroke-linecap="round" stroke-linejoin="round" id="path4895"/>
    <path d="M608.823,650.199 C589.803,666.984 548.898,683.972 530.643,686.897 C515.891,659.552 488.163,621.411 464.931,605.44 C453.319,597.458 428.457,587.299 419.475,569.008 C411.571,552.908 409.409,547.35 390.196,517.725 C375.636,495.279 382.626,501.279 345.285,464.076 C323.306,442.18 357.155,362.935 400.026,355.649 C423.648,351.63 440.314,327.199 457.017,348.841 C461.229,354.299 447.06,373.605 469.173,399.405 C486.273,419.355 493.398,445.006 493.698,472.854 C493.781,493.041 506.778,519.161 509.523,528.49 C532.608,545.886 539.651,552.771 552.011,565.551 C574.616,588.933 590.298,618.855 608.823,650.199" fill="#FFFFFE" id="path4897"/>
    <path d="M608.823,650.199 C589.803,666.984 548.898,683.972 530.643,686.897 C515.891,659.552 488.163,621.411 464.931,605.44 C453.319,597.458 428.457,587.299 419.475,569.008 C411.571,552.908 409.409,547.35 390.196,517.725 C375.636,495.279 382.626,501.279 345.285,464.076 C323.306,442.18 357.155,362.935 400.026,355.649 C423.648,351.63 440.314,327.199 457.017,348.841 C461.229,354.299 447.06,373.605 469.173,399.405 C486.273,419.355 493.398,445.006 493.698,472.854 C493.781,493.041 506.778,519.161 509.523,528.49 C532.608,545.886 539.651,552.771 552.011,565.551 C574.616,588.933 590.298,618.855 608.823,650.199 z" fill-opacity="0" stroke="#1A1919" stroke-width="2.126" stroke-linecap="round" stroke-linejoin="round" id="path4899"/>
    <path d="M286.011,162.183 C268.07,167.357 259.225,170.772 241.629,172.954 C214.819,176.271 200.856,173.886 174.426,176.678 C159.459,178.264 133.166,178.665 114.348,179.951 C114.529,202.812 118.573,228.957 121.306,251.646 C141.724,251.256 151.29,250.424 170.892,250.822 C187.541,251.157 210.847,247.933 226.063,251.206 C240.981,254.412 257.561,257.622 269.15,267.594 C272.201,311.952 275.201,318.838 275.529,348.524 C280.356,372.041 289.679,376.561 294.917,387.165 C293.464,390.135 298.143,397.151 295.395,400.444 C284.324,414.672 273.052,423.848 263.367,433.099 C281.073,456.405 330.948,459.25 358.018,452.131 C368.598,449.35 396.559,442.974 415.022,437.875 C419.348,425.932 417.873,405.819 414.642,392.775 C426.459,405.29 432.663,416.316 443.188,430.166 C468.716,412.556 475.788,409.394 490.548,398.929 C484.848,385.632 470.501,361.995 451.599,349.531 C448.416,343.773 454.698,344.433 453.127,342.211 C450.319,333.698 456.055,323.881 456.576,319.414 C458.285,304.866 472.811,323.742 486.356,321.249 C500.553,318.638 517.053,331.401 527.598,327.683 C559.886,316.289 557.981,288.44 557.988,275.428 C558.018,244.894 531.011,218.548 520.001,206.085 C510.086,194.847 475.136,165.957 469.608,161.615 C455.989,150.936 429.356,143.63 415.143,142.722 C401.174,141.834 414.591,142.333 400.712,143.282 C375.373,145.016 335.254,153.572 310.211,157.958 C303.559,159.116 292.866,160.212 286.011,162.183" fill="#FFFFFE" id="path4901"/>
    <path d="M257.063,240.24 C255.495,239.684 252.307,238.35 250.444,238.737 C242.988,240.294 249.579,248.346 240.826,248.006 C237.249,247.866 226.216,247.287 223.495,250.377 C226.445,251.268 257.561,256.553 268.966,266.887 C268.699,259.898 265.187,243.124 257.063,240.24" fill="#E4E4E3" id="path4903"/>
    <path d="M392.196,294.054 C398.48,298.872 405.53,300.174 406.467,310.633 C407.541,322.562 391.767,336.542 408.905,343.909 C412.916,345.635 421.457,341.382 425.07,343.77 C429.726,346.843 425.953,351.474 429.321,355.198 C435.276,361.783 444.285,367.9 452.196,371.805 C459.643,375.482 473.456,382.79 480.108,381.84 C479.148,370.439 458.394,358.02 453.977,347.16 C446.712,329.303 458.207,317.475 465.31,301.471 C469.301,292.492 480.093,277.875 474.476,268.685 C467.247,265.916 459.41,260.402 454.704,254.157 C453.312,252.309 446.128,235.965 447.585,235.654 C425.644,240.341 445.967,253.383 436.086,263.72 C425.616,274.674 416.162,260.755 407.865,255.846 C380.772,239.812 373.434,270.079 387.666,289.486 C389.05,291.374 390.597,292.827 392.196,294.054" fill="#E4E4E3" id="path4905"/>
    <path d="M286.011,162.183 C268.07,167.357 259.225,170.772 241.629,172.954 C214.819,176.271 200.856,173.886 174.426,176.678 C159.459,178.264 133.166,178.665 114.348,179.951 C114.529,202.812 118.573,228.957 121.306,251.646 C141.724,251.256 151.29,250.424 170.892,250.822 C187.541,251.157 210.847,247.933 226.063,251.206 C240.981,254.412 256.857,255.486 269.15,267.594 C272.201,311.952 275.201,318.838 275.529,348.524 C280.356,372.041 289.679,376.561 294.917,387.165 C293.464,390.135 298.143,397.151 295.395,400.444 C284.324,414.672 273.052,423.848 263.367,433.099 C281.073,456.405 330.948,459.25 358.018,452.131 C368.598,449.35 396.559,442.974 415.022,437.875 C419.348,425.932 417.873,405.819 414.642,392.775 C426.459,405.29 432.663,416.316 443.188,430.166 C468.716,412.556 475.788,409.394 490.548,398.929 C484.848,385.632 470.501,361.995 451.599,349.531 C448.416,343.773 454.698,344.433 453.127,342.211 C450.319,333.698 456.055,323.881 456.576,319.414 C458.285,304.866 472.811,323.742 486.356,321.249 C500.553,318.638 517.053,331.401 527.598,327.683 C559.886,316.289 557.981,288.44 557.988,275.428 C558.018,244.894 531.011,218.548 520.001,206.085 C510.086,194.847 485.928,173.85 480.393,169.509 C466.778,158.829 429.356,143.63 415.143,142.722 C401.174,141.834 414.591,142.333 400.712,143.282 C375.373,145.016 335.254,153.572 310.211,157.958 C303.559,159.116 292.866,160.212 286.011,162.183 z M269.334,272.331 C268.426,259.008 264.925,246.088 256.575,240.313 C251.627,236.895 243.528,238.56 245.515,248.737" fill-opacity="0" stroke="#1A1919" stroke-width="2.126" stroke-linecap="round" stroke-linejoin="round" id="path4907"/>
    <path d="M314.01,175.743 C315.426,172.416 317.102,157.582 318.042,154.161 C325.023,128.762 320.706,129.572 317.478,104.504 C314.979,85.107 301.839,36.855 323.061,27.069 C337.962,20.201 370.484,6.791 386.673,19.131 C411.348,37.929 415.04,66.844 410.764,88.812 C408.703,99.402 399.776,110.549 395.793,121.181 C396.146,130.259 396.473,140.298 396.77,144.009 C397.639,155.033 391.621,150.48 397.905,158.417 C401.551,163.029 378.648,176.702 376.895,183.009 C374.7,190.902 367.33,192.369 359.208,195.86 C337.884,205.035 340.851,270.385 316.637,270.972 C312.287,250.24 306.122,194.209 314.01,175.743" fill="#F9D7C2" id="path4909"/>
    <path d="M314.01,175.743 C315.427,172.416 317.102,157.582 318.043,154.161 C325.023,128.762 320.707,129.572 317.478,104.504 C314.979,85.107 301.839,36.855 323.061,27.069 C337.962,20.201 370.484,6.791 386.673,19.131 C411.348,37.929 415.04,66.844 410.764,88.812 C408.703,99.402 399.776,110.549 395.793,121.181 C396.146,130.259 396.473,140.298 396.77,144.009 C397.639,155.033 391.621,150.48 397.905,158.417 C401.551,163.029 378.648,176.702 376.895,183.009 C374.7,190.902 367.33,192.369 359.208,195.86 C337.884,205.035 340.851,270.385 316.637,270.972 C312.287,250.24 306.122,194.209 314.01,175.743 z M464.277,177.09 C445.927,185.222 425.431,221.805 430.536,254.568" fill-opacity="0" stroke="#1A1919" stroke-width="2.126" stroke-linecap="round" stroke-linejoin="round" id="path4911"/>
    <path d="M302.404,396.099 C292.927,408.351 259.139,464.154 258.426,500.937 C267.759,505.455 279.481,504.015 285.755,501.654 C290.349,483.931 309.601,397.541 309.601,397.541 C309.601,397.541 307.578,396.386 302.404,396.099" fill="#313231" id="path4913"/>
    <path d="M302.404,396.099 C292.927,408.351 259.139,464.154 258.426,500.937 C267.759,505.455 279.481,504.015 285.755,501.654 C290.349,483.931 309.601,397.541 309.601,397.541 C309.601,397.541 307.578,396.386 302.404,396.099 z" fill-opacity="0" stroke="#1A1919" stroke-width="2.126" stroke-linecap="round" stroke-linejoin="round" id="path4915"/>
    <path d="M312.273,395.855 C312.273,395.855 332.407,470.652 330.125,512.706 C343.702,513.534 358.987,512.039 364.246,507.772 C362.648,493.701 326.724,390.007 326.724,390.007 L312.273,395.855" fill="#313231" id="path4917"/>
    <path d="M312.273,395.855 C312.273,395.855 332.407,470.652 330.125,512.706 C343.702,513.534 358.987,512.039 364.246,507.772 C362.648,493.701 326.724,390.007 326.724,390.007 z" fill-opacity="0" stroke="#1A1919" stroke-width="2.126" stroke-linecap="round" stroke-linejoin="round" id="path4919"/>
    <path d="M24.735,211.763 C25.297,208.05 25.102,205.206 22.876,202.5" fill="#F9D7C2" id="path4921"/>
    <path d="M24.735,211.763 C25.297,208.05 25.102,205.206 22.876,202.5" fill-opacity="0" stroke="#1A1919" stroke-width="2.126" stroke-linecap="round" stroke-linejoin="round" id="path4923"/>
    <path d="M34.571,218.439 C32.466,216.383 28.927,207.399 31.549,203.953" fill="#F9D7C2" id="path4925"/>
    <path d="M34.571,218.439 C32.466,216.383 28.927,207.399 31.549,203.953" fill-opacity="0" stroke="#1A1919" stroke-width="2.126" stroke-linecap="round" stroke-linejoin="round" id="path4927"/>
    <path d="M14.963,218.142 C17.727,217.641 19.753,212.202 23.104,211.874 C28.562,211.34 37.092,213.375 35.211,221.668 C34.69,225.612 31.17,225.891 26.945,226.308 C23.251,226.675 19.071,227.911 15.545,226.68 C11.209,225.161 3.093,216.544 1.515,212.526 C0.71,210.488 0.677,206.28 4.279,202.141 C9.951,195.628 18.289,184.421 23.227,183.702" fill="#F9D7C2" id="path4929"/>
    <path d="M14.963,218.142 C17.727,217.641 19.753,212.202 23.104,211.874 C28.562,211.34 37.092,213.375 35.211,221.668 C34.69,225.612 31.17,225.891 26.945,226.308 C23.251,226.675 19.071,227.911 15.545,226.68 C11.209,225.161 3.093,216.544 1.515,212.526 C0.71,210.488 0.677,206.28 4.279,202.141 C9.951,195.628 18.289,184.421 23.227,183.702 M22.698,211.899 C18.779,210.416 17.114,207.786 10.936,206.987" fill-opacity="0" stroke="#1A1919" stroke-width="2.126" stroke-linecap="round" stroke-linejoin="round" id="path4931"/>
    <path d="M43.037,217.112 C44.482,223.914 31.573,237.771 29.283,228.351 C28.726,226.091 32.283,223.474 33.58,221.78 C35.785,218.893 38.718,216.744 43.037,217.112" fill="#F9D7C2" id="path4933"/>
    <path d="M26.739,229.185 C33.608,222.183 37.446,218.651 40.872,209.024 M508.248,528.585 C495.521,529.454 459.159,532.996 471.858,559.201 C481.091,561.966 490.503,533.016 509.148,532.392 C493.856,544.392 494.748,557.358 492.386,560.603 M482.058,277.068 C485.448,258.699 492.393,249.453 509.073,248.356 M445.232,593.89 C461.331,603.1 471.491,604.784 485.343,602.326 M449.607,239.606 C445.521,256.701 477.918,270.681 486.828,271.585 M493.323,462.582 C492.603,481.112 491.261,483.475 484.128,495.593 M385.395,123.009 C383.308,138.897 372.395,168.508 345.396,181.509 M312.418,179.951 C322.387,177.282 325.714,185.545 328.095,192.776 M339.498,192.776 C345.51,186.772 360.928,184.151 371.622,185.052" fill-opacity="0" stroke="#1A1919" stroke-width="2.126" stroke-linecap="round" stroke-linejoin="round" id="path4935"/>
    <path d="M319.548,154.306 C330.97,148.061 325.566,156.338 336.345,153.591 C317.943,176.761 312.846,241.518 328.544,256.606 C317.74,268.306 319.908,281.037 313.837,286.609 C296.314,269.258 297.606,182.233 319.548,154.306" fill="#FFFFFE" id="path4937"/>
    <path d="M319.548,154.306 C330.97,148.061 325.566,156.338 336.345,153.591 C317.943,176.761 312.846,241.518 328.544,256.606 C317.74,268.306 319.908,281.037 313.837,286.609 C296.314,269.258 297.606,182.233 319.548,154.306 z" fill-opacity="0" stroke="#1A1919" stroke-width="2.126" stroke-linecap="round" stroke-linejoin="round" id="path4939"/>
    <path d="M336.849,214.58 C362.877,183.585 398.645,168.009 396.146,133.509 C406.145,141.418 414.215,142.475 413.581,155.197 C413.15,174.134 390.87,187.683 363.656,217.045 C341.252,241.221 328.827,269.347 322.743,287.199 C307.519,331.863 301.274,369.272 313.409,395.938 C302.462,396.049 306.868,395.379 300.921,393.199 C291.31,378.381 291.285,346.38 295.896,319.64 C298.185,306.403 304.992,252.515 336.849,214.58" fill="#FFFFFE" id="path4941"/>
    <path d="M336.849,214.58 C362.877,183.585 398.645,168.009 396.146,133.509 C406.145,141.418 414.215,142.475 413.581,155.197 C413.15,174.134 390.87,187.683 363.656,217.045 C341.252,241.221 328.827,269.347 322.743,287.199 C307.519,331.863 301.274,369.272 313.409,395.938 C302.462,396.049 306.868,395.379 300.921,393.199 C291.31,378.381 291.285,346.38 295.896,319.64 C298.185,306.403 304.992,252.515 336.849,214.58 z" fill-opacity="0" stroke="#1A1919" stroke-width="2.126" stroke-linecap="round" stroke-linejoin="round" id="path4943"/>
    <path d="M307.867,381.248 C299.398,383.45 293.02,382.44 291.185,381.893 C284.569,388.785 288.566,395.999 293.742,401.214 C304.497,402.32 428.795,373.283 458.241,352.381 C456.393,344.138 454.377,336.105 450.65,328.629 C422.119,354.096 347.823,374.969 307.867,381.248" fill="#313231" id="path4945"/>
    <path d="M307.867,381.248 C299.398,383.45 293.02,382.44 291.185,381.893 C284.569,388.785 288.566,395.999 293.742,401.214 C304.497,402.32 428.795,373.283 458.241,352.381 C456.393,344.138 454.377,336.105 450.65,328.629 C422.119,354.096 347.823,374.969 307.867,381.248 z" fill-opacity="0" stroke="#1A1919" stroke-width="2.126" stroke-linecap="round" stroke-linejoin="round" id="path4947"/>
    <path d="M301.023,385.155 C308.477,375.531 324.909,385.718 317.289,397.658 C314.166,402.55 302.715,410.112 296.397,400.118 C292.122,393.355 299.231,387.477 301.023,385.155" fill="#313231" id="path4949"/>
    <path d="M301.023,385.155 C308.477,375.531 324.909,385.718 317.289,397.658 C314.166,402.55 302.715,410.112 296.397,400.118 C292.122,393.355 299.231,387.477 301.023,385.155 z" fill-opacity="0" stroke="#1A1919" stroke-width="2.126" stroke-linecap="round" stroke-linejoin="round" id="path4951"/>
    <path d="M312.507,402.507 C308.955,397.585 302.448,382.356 306.406,379.077 C310.531,375.659 316.86,371.913 320.378,376.188 C323.901,380.463 328.627,393.035 324.951,395.86 C321.279,398.676 316.064,407.424 312.507,402.507" fill="#313231" id="path4953"/>
    <path d="M312.507,402.507 C308.955,397.585 302.448,382.356 306.406,379.077 C310.531,375.659 316.86,371.913 320.378,376.188 C323.901,380.463 328.627,393.035 324.951,395.86 C321.279,398.676 316.064,407.424 312.507,402.507 z" fill-opacity="0" stroke="#1A1919" stroke-width="2.126" stroke-linecap="round" stroke-linejoin="round" id="path4955"/>
    <path d="M394.747,257.316 C402.794,261.44 410.565,269.567 417.672,278.097 C419.109,279.823 424.942,281.448 430.208,281.059 C438.262,280.469 448.806,278.198 455.774,276.625 C473.448,272.643 470.118,290.976 475.323,294.63 C479.793,297.772 473.201,292.943 473.501,299.704 C473.651,302.968 477.693,302.968 476.126,306.13 C471.529,315.387 475.001,314.83 466.663,312.779 C454.84,309.865 433.397,310.683 415.157,312.069 C403.678,312.943 388.281,317.564 376.548,317.452 C371.396,317.405 363.745,319.757 358.306,313.572 C354.048,308.736 351.266,293.016 349.042,287.118 C346.29,279.818 356.07,277.196 358.51,270.516 C357.283,266.715 360.439,269.453 359.887,266.793 C358.551,260.313 364.831,250.349 370.753,250.118 C378.19,249.831 384.558,252.089 394.747,257.316" fill="#F9D7C2" id="path4957"/>
    <path d="M394.747,257.316 C402.794,261.44 410.565,269.567 417.672,278.097 C419.109,279.823 424.942,281.448 430.208,281.059 C438.262,280.469 448.806,278.198 455.774,276.625 C473.448,272.643 470.118,290.976 475.323,294.63 C479.793,297.772 473.201,292.943 473.501,299.704 C473.651,302.968 477.693,302.968 476.126,306.13 C471.529,315.387 475.001,314.83 466.663,312.779 C454.84,309.865 433.397,310.683 415.157,312.069 C403.678,312.943 388.281,317.564 376.548,317.452 C371.396,317.405 363.745,319.757 358.306,313.572 C354.048,308.736 351.266,293.016 349.042,287.118 C346.29,279.818 356.07,277.196 358.51,270.516 C357.283,266.715 360.439,269.453 359.887,266.793 C358.551,260.313 364.831,250.349 370.753,250.118 C378.19,249.831 384.558,252.089 394.747,257.316 z" fill-opacity="0" stroke="#1A1919" stroke-width="2.126" stroke-linecap="round" stroke-linejoin="round" id="path4959"/>
    <path d="M367.274,282.506 C367.447,286.45 366.927,289.408 364.293,291.991" fill="#F9D7C2" id="path4961"/>
    <path d="M367.274,282.506 C367.447,286.45 366.927,289.408 364.293,291.991" fill-opacity="0" stroke="#1A1919" stroke-width="2.126" stroke-linecap="round" stroke-linejoin="round" id="path4963"/>
    <path d="M378.324,276.617 C375.891,278.538 371.171,287.544 373.53,291.446" fill="#F9D7C2" id="path4965"/>
    <path d="M378.324,276.617 C375.891,278.538 371.171,287.544 373.53,291.446" fill-opacity="0" stroke="#1A1919" stroke-width="2.126" stroke-linecap="round" stroke-linejoin="round" id="path4967"/>
    <path d="M357.759,274.736 C360.595,275.565 362.109,281.482 365.582,282.205 C371.233,283.38 380.392,282.205 379.345,273.321 C379.248,269.124 375.596,268.443 371.22,267.527 C367.392,266.731 363.155,264.966 359.326,265.863 C354.622,266.965 345.16,275.075 343.055,279.105 C341.989,281.148 341.268,285.707 344.79,290.283 C350.952,298.301 357.466,310.399 362.549,311.707" fill="#F9D7C2" id="path4969"/>
    <path d="M357.759,274.736 C360.595,275.565 362.109,281.482 365.582,282.205 C371.233,283.38 380.392,282.205 379.345,273.321 C379.248,269.124 375.596,268.443 371.22,267.527 C367.392,266.731 363.155,264.966 359.326,265.863 C354.622,266.965 345.16,275.075 343.055,279.105 C341.989,281.148 341.268,285.707 344.79,290.283 C350.952,298.301 357.466,310.399 362.549,311.707 M365.162,282.128 C360.889,283.247 357.236,285.865 351.694,282.684" fill-opacity="0" stroke="#1A1919" stroke-width="2.126" stroke-linecap="round" stroke-linejoin="round" id="path4971"/>
    <path d="M387.029,278.966 C389.305,272.002 377.349,256.044 373.887,265.651 C373.057,267.955 376.487,271.101 377.652,273.015 C379.638,276.283 382.47,278.865 387.029,278.966" fill="#F9D7C2" id="path4973"/>
    <path d="M371.322,264.493 C377.727,272.592 381.352,276.723 383.856,287.171" fill-opacity="0" stroke="#1A1919" stroke-width="2.126" stroke-linecap="round" stroke-linejoin="round" id="path4975"/>
    <path d="M510.956,266.074 C495.941,260.218 489.296,263.313 474.176,267.783 C456.648,272.415 446.546,272.918 435.469,271.092 C434.03,287.922 455.628,342.056 456.348,348.106 C481.511,342.523 484.901,342.818 494.816,339.559 C510.131,334.53 526.496,328.852 538.998,321.978" fill="#FFFFFE" id="path4977"/>
    <path d="M510.956,266.074 C495.941,260.218 489.296,263.313 474.176,267.783 C456.648,272.415 446.546,272.918 435.468,271.092 C434.03,287.922 455.628,342.056 456.348,348.106 C481.511,342.523 484.901,342.818 494.816,339.559 C510.131,334.53 526.496,328.852 538.998,321.978 M332.374,151.456 C331.56,160.176 330.948,174.256 332.37,179.951" fill-opacity="0" stroke="#1A1919" stroke-width="2.126" stroke-linecap="round" stroke-linejoin="round" id="path4979"/>
    <path d="M324.102,21.33 C320.361,27.982 316.576,25.371 313.081,35.013 C311.472,39.449 306.156,65.751 306.25,68.328 C306.49,74.826 309.334,80.395 307.67,87.331 C306.468,92.349 303.584,95.979 299.602,97.857 C296.356,99.388 289.957,100.123 290.818,105.711 C291.691,111.398 296.292,114.273 304.085,114.251 C306.309,133.123 309.334,149.408 315.841,157.479 C318.953,161.331 339.68,158.112 352.396,151.008 C366.493,143.127 377.896,127.509 384.896,109.509" fill="#F9D7C2" id="path4981"/>
    <path d="M324.102,21.33 C320.361,27.982 316.576,25.371 313.081,35.013 C311.472,39.449 306.156,65.751 306.25,68.328 C306.49,74.826 309.334,80.395 307.67,87.331 C306.468,92.349 303.584,95.979 299.602,97.857 C296.356,99.388 289.957,100.123 290.818,105.711 C291.691,111.398 296.292,114.273 304.085,114.251 C306.309,133.123 309.334,149.408 315.841,157.479 C318.953,161.331 339.68,158.112 352.396,151.008 C366.493,143.127 377.896,127.509 384.896,109.509" fill-opacity="0" stroke="#1A1919" stroke-width="2.126" stroke-linecap="round" stroke-linejoin="round" id="path4983"/>
    <path d="M367.123,67.641 C365.034,58.798 363.974,58.205 364.157,55.236 C364.401,51.241 366.94,47.468 368.125,43.307 C369.684,37.821 359.938,29.385 351.441,34.144 C347.814,36.171 338.346,40.668 332.101,43.351 C327.731,45.227 318.577,50.281 312.418,50.281 C301.015,50.281 303.606,34.985 309.573,27.484 C314.41,21.405 328.196,10.974 334.906,8.7 C354.817,-0.345 374.421,-0.462 389.373,3.732 C403.867,7.801 419.418,22.734 424.046,36.034 C431.644,57.882 419.793,81.715 412.109,93.906 C410.559,96.363 401.459,109.136 395.895,120.759 C389.989,108.075 388.794,98.814 387.808,91.017 C386.701,82.23 385.939,76.229 377.645,77.259 C377.073,80.125 373.807,93.063 371.645,96.759 C369.855,97.293 367.191,98.618 364.145,98.009 C364.586,94.538 368.987,75.497 367.123,67.641" fill="#000000" id="path4985"/>
    <path d="M367.123,67.641 C365.034,58.798 363.974,58.205 364.157,55.236 C364.401,51.241 366.94,47.468 368.125,43.307 C369.684,37.821 359.938,29.385 351.441,34.144 C347.814,36.171 338.346,40.668 332.101,43.351 C327.731,45.227 318.577,50.281 312.418,50.281 C301.015,50.281 303.606,34.985 309.573,27.484 C314.41,21.405 328.196,10.974 334.906,8.7 C354.817,-0.345 374.421,-0.462 389.373,3.732 C403.867,7.801 419.418,22.734 424.046,36.034 C431.644,57.882 419.793,81.715 412.109,93.906 C410.559,96.363 401.459,109.136 395.895,120.759 C389.989,108.075 388.794,98.814 387.808,91.017 C386.701,82.23 385.939,76.229 377.645,77.259 C377.073,80.125 373.807,93.063 371.645,96.759 C369.855,97.293 367.191,98.618 364.145,98.009 C364.586,94.538 368.987,75.497 367.123,67.641 z" fill-opacity="0" stroke="#1A1919" stroke-width="2.126" stroke-linecap="round" stroke-linejoin="round" id="path4987"/>
    <path d="M322.077,65.066 C318.27,68.13 317.859,69.511 310.889,70.638 C313.169,75.573 314.91,76.775 321.081,74.593 C327.922,72.18 335.075,58.598 340.764,66.622 C341.043,61.698 338.782,57.877 334.48,57.872 C329.545,57.86 327.828,60.438 322.077,65.066" fill="#1A1919" id="path4989"/>
    <path d="M325.082,79.627 C328.572,78.687 330.854,86.31 325.435,87.292 C322.866,87.752 321.068,80.713 325.082,79.627" fill="#1A1919" id="path4991"/>
    <path d="M310.848,123.652 C312.117,118.848 328.396,114.009 340.396,130.509" fill="#F9D7C2" id="path4993"/>
    <path d="M310.848,123.652 C312.117,118.848 328.396,114.009 340.396,130.509" fill-opacity="0" stroke="#1A1919" stroke-width="2.126" stroke-linecap="round" stroke-linejoin="round" id="path4995"/>
    <path d="M377.21,91.977 C375.945,85 378.272,76.242 381.645,70.509 C383.711,67.002 387.207,64.34 392.145,65.259 C395.532,65.888 398.869,70.007 400.623,76.197 C402.886,84.204 401.832,91.922 397.89,99.158 C396.067,102.504 391.16,109.723 386.985,111.644 C383.178,113.397 380.093,110.244 378.141,105.666" fill="#F9D7C2" id="path4997"/>
    <path d="M377.21,91.977 C375.945,85 378.272,76.242 381.645,70.509 C383.711,67.002 387.207,64.34 392.145,65.259 C395.532,65.888 398.869,70.007 400.623,76.197 C402.886,84.204 401.832,91.922 397.89,99.158 C396.067,102.504 391.16,109.723 386.985,111.644 C383.178,113.397 380.093,110.244 378.141,105.666 M383.417,96.684 C380.834,91.811 381.791,72.813 390.731,73.386 M383.417,86.7 C392.19,80.037 393.39,95.412 388.154,100.132 M268.248,566.843 C261.683,570.288 249.487,573.142 239.748,573.974 C227.301,575.034 219.392,574.986 221.218,583.944 C227.63,589.638 248.621,578.187 262.543,578.95 C259.598,585.321 243.345,593.451 239.031,599.618" fill-opacity="0" stroke="#1A1919" stroke-width="2.126" stroke-linecap="round" stroke-linejoin="round" id="path4999"/>
  </g>
</svg>
